{
    "asset": {
        "version": "2.0",
        "generator": "Open Asset Import Library (assimp v5.2.cf7d3637)"
    },
    "extensionsUsed": [
        "KHR_materials_volume",
        "FB_ngon_encoding"
    ],
    "accessors": [
        {
            "bufferView": 0,
            "byteOffset": 0,
            "componentType": 5126,
            "count": 255708,
            "type": "VEC3",
            "max": [
                0.08316300064325333,
                0.032999999821186069,
                0.05900000035762787
            ],
            "min": [
                -0.04399999976158142,
                -0.06199999898672104,
                0.0
            ]
        },
        {
            "bufferView": 1,
            "byteOffset": 0,
            "componentType": 5126,
            "count": 255708,
            "type": "VEC4",
            "max": [
                1.0,
                0.9803921580314636,
                0.9803921580314636,
                0.0
            ],
            "min": [
                0.0,
                0.11372549086809159,
                0.07450980693101883,
                0.0
            ]
        },
        {
            "bufferView": 2,
            "byteOffset": 0,
            "componentType": 5125,
            "count": 255708,
            "type": "SCALAR",
            "max": [
                255707
            ],
            "min": [
                0
            ]
        }
    ],
    "buffers": [
        {
            "byteLength": 8182656,
            "uri": "result.bin"
        }
    ],
    "bufferViews": [
        {
            "buffer": 0,
            "byteOffset": 0,
            "byteLength": 3068496,
            "target": 34962
        },
        {
            "buffer": 0,
            "byteOffset": 3068496,
            "byteLength": 4091328,
            "target": 34962
        },
        {
            "buffer": 0,
            "byteOffset": 7159824,
            "byteLength": 1022832,
            "target": 34963
        }
    ],
    "materials": [
        {
            "name": "lambert2SG.001",
            "pbrMetallicRoughness": {
                "metallicFactor": 0.5,
                "roughnessFactor": 0.5
            }
        },
        {
            "name": "material"
        }
    ],
    "meshes": [
        {
            "name": "meshes[0]",
            "primitives": [
                {
                    "mode": 4,
                    "material": 0,
                    "indices": 2,
                    "attributes": {
                        "POSITION": 0,
                        "COLOR_0": 1
                    }
                }
            ]
        }
    ],
    "nodes": [
        {
            "name": "nodes[1]",
            "matrix": [
                1.0,
                0.0,
                0.0,
                0.0,
                0.0,
                2.220446049250313e-16,
                -1.0,
                0.0,
                0.0,
                1.0,
                2.220446049250313e-16,
                0.0,
                0.0,
                0.0,
                0.0,
                1.0
            ],
            "children": [
                1
            ]
        },
        {
            "name": "Mesh_Mesh_head_geo.001_lambert2SG.001",
            "mesh": 0
        }
    ],
    "scenes": [
        {
            "nodes": [
                0
            ]
        }
    ],
    "scene": 0
}